<svg width="172" height="460" viewBox="0 0 172 460" fill="none" xmlns="http://www.w3.org/2000/svg">
<path fill-rule="evenodd" clip-rule="evenodd" d="M82.4969 0L82.3298 2.41622L78.4671 2.41235L78.466 5H94.4466L94.4466 2.41125L90.8417 2.41235L90.687 0H82.4969ZM98.6565 13H74.2611V13.6878L78.4644 13.6922L78.4677 17.6162L81.3013 17.6134L81.2629 18H91.845L91.81 17.6278L94.4554 17.6233L94.4532 13.6961L98.657 13.7L98.6565 13ZM92.597 26H80.4674L79.9703 31H93.0669L92.597 26ZM93.8189 39H79.1748L78.6776 44H94.2888L93.8189 39ZM95.0408 52H77.8822L77.385 57H95.5107L95.0408 52ZM93.8598 65H79.0592L78.909 70H94.0102L93.8598 65ZM94.2507 78H78.6688L78.5186 83H94.4011L94.2507 78ZM94.6416 91H78.2784L78.1282 96H94.792L94.6416 91ZM95.0325 104H77.8879L77.7378 109H95.1829L95.0325 104ZM95.4234 117H77.4975L77.3474 122H95.5738L95.4234 117ZM95.8143 130H77.1071L76.957 135H95.9646L95.8143 130ZM96.2052 143H76.7167L76.5666 148H96.3555L96.2052 143ZM96.5961 156H76.3263L76.1762 161H96.7464L96.5961 156ZM112.804 169H60.0886C55.7625 170.357 51.654 172.036 47.8145 174H125.091C121.247 172.036 117.134 170.356 112.804 169ZM137.391 182H35.5213C33.5954 183.58 31.7934 185.25 30.1273 187H142.788C141.121 185.25 139.318 183.58 137.391 182ZM149.084 195H23.834C22.7995 196.622 21.8694 198.29 21.0503 200H151.87C151.05 198.29 150.119 196.622 149.084 195ZM154.797 208H18.1248C17.7027 209.641 17.3788 211.309 17.1579 213H155.766C155.544 211.309 155.22 209.641 154.797 208ZM156.037 221H16.8864C16.9791 222.604 17.1545 224.274 17.4087 226H155.512C155.767 224.274 155.943 222.604 156.037 221ZM153.87 234H19.0473C19.4696 235.64 19.9488 237.309 20.4823 239H152.434C152.968 237.309 153.447 235.64 153.87 234ZM149.564 247H23.3505C24.0155 248.661 24.7265 250.33 25.4813 252H147.433C148.188 250.33 148.899 248.661 149.564 247ZM148.545 260H24.0955C23.444 261.828 22.6343 263.538 21.628 265H151.008C150.003 263.538 149.195 261.828 148.545 260ZM137.933 273H34.718C35.9467 274.36 37.0868 276.007 38.0523 278H134.596C135.562 276.006 136.703 274.36 137.933 273ZM132.143 286H40.5037C40.7601 287.541 40.9368 289.205 41.0201 291H131.626C131.709 289.205 131.886 287.541 132.143 286ZM131.831 299H40.8136C40.796 299.196 40.7776 299.394 40.7582 299.593C40.6086 301.129 40.429 302.597 40.2214 304H132.424C132.217 302.599 132.037 301.134 131.887 299.599C131.868 299.398 131.849 299.199 131.831 299ZM134.083 312H38.5644C38.0634 313.813 37.5037 315.475 36.8938 317H135.754C135.144 315.475 134.584 313.813 134.083 312ZM140.265 325H32.3839C30.6714 327.162 28.8097 328.787 26.8903 330H145.757C143.838 328.786 141.977 327.161 140.265 325ZM159.427 338H13.229C13.8744 339.387 14.5528 341.06 15.1677 343H157.49C158.105 341.06 158.783 339.387 159.427 338ZM156.001 351H15.9773C14.9245 352.642 13.907 354.31 12.9314 356H159.139C158.142 354.31 157.095 352.642 156.001 351ZM163.407 364H8.72312C7.93836 365.653 7.19979 367.321 6.51284 369H165.632C164.94 367.321 164.198 365.653 163.407 364ZM168.512 377H3.67312C3.17521 378.662 2.7344 380.33 2.35568 382H169.892C169.486 380.33 169.025 378.662 168.512 377ZM171.416 390H1.03768C0.869875 391.67 0.772114 393.338 0.749403 395H171.926C171.815 393.338 171.644 391.67 171.416 390ZM171.999 403H1.20233C1.40575 404.708 1.66981 406.375 1.99163 408H171.59C171.783 406.378 171.92 404.711 171.999 403ZM170.097 416H4.14325C4.73609 417.721 5.39992 419.387 6.13025 421H168.543C169.131 419.39 169.65 417.724 170.097 416ZM164.809 429H10.5624C11.721 430.743 12.9668 432.409 14.2919 434H161.489C162.687 432.414 163.796 430.748 164.809 429ZM153.968 442H22.3253C24.4877 443.799 26.7693 445.464 29.1498 447H147.263C149.636 445.471 151.877 443.807 153.968 442ZM130.456 455H45.2499C51.2375 457.241 57.4992 458.892 63.8131 460H109.358C116.762 458.908 123.864 457.271 130.456 455Z" fill="white"/>
</svg>
