<svg width="507" height="517" viewBox="0 0 507 517" fill="none" xmlns="http://www.w3.org/2000/svg">
<g clip-path="url(#clip0)">
<path d="M242.678 5.37993L242.33 10.4162L238.467 10.4124L238.465 14.3401L234.261 14.3435L234.261 21.6878L238.464 21.6922L238.468 25.6162L241.301 25.6134L237.168 67.1806L239.234 67.1806L236.037 173.633C202.527 177.5 176.809 199.604 176.809 226.377C176.804 235.942 180.129 248.391 185.871 260.853C185.039 265.904 183.444 271.261 180.387 274.559C180.387 274.559 204.063 273.731 200.758 307.593C197.461 341.463 179.563 342.008 170.476 341.183C170.476 341.183 175.115 347.204 176.756 357.8C166.838 372.899 159.828 390.339 160.842 406.979C163.6 452.13 207.092 469.749 243.979 469.75C289.215 469.75 332.078 454.885 332.078 407.534C332.081 391.044 325.901 373.743 315.776 358.663C317.292 347.541 322.172 341.188 322.172 341.188C313.087 342.012 295.193 341.46 291.887 307.599C288.583 273.738 312.255 274.567 312.255 274.567C309.282 271.364 307.694 266.205 306.846 261.278C312.709 248.677 316.111 236.058 316.116 226.386C316.116 199.614 290.396 177.509 256.886 173.643L253.684 67.1585L255.713 67.1574L251.81 25.6278L254.455 25.6233L254.453 21.6961L258.657 21.7L258.651 14.3368L254.447 14.3407L254.447 10.4113L250.842 10.4124L250.519 5.37716L242.678 5.37993Z" fill="white"/>
</g>
<defs>
<clipPath id="clip0">
<rect width="364.949" height="364.949" fill="white" transform="translate(-10 258.058) rotate(-45)"/>
</clipPath>
</defs>
</svg>
